<svg width="100" height="100" xmlns="http://www.w3.org/2000/svg">
 <g>
  <title>Layer 1</title>
  <circle fill="#B2B2B2" cx="50" cy="50" r="50" id="svg_1"/>
  <path d="m23.75706,16.46309c-4.68287,-0.0323 -7.28388,0.02079 -7.34847,0.14997c-0.05499,0.10998 -0.00726,1.25724 0.10607,2.54947c0.11333,1.29223 0.3863,3.20433 0.60661,4.24912c0.22031,1.04478 0.67287,2.70944 1.00569,3.69923c0.33282,0.9898 1.01102,2.65445 1.50709,3.69923c0.49608,1.04478 1.46778,2.75443 2.15933,3.79921c0.69155,1.04478 1.54716,2.25953 1.90134,2.69944c0.35419,0.43991 1.11993,1.29473 1.70165,1.8996c0.58172,0.60488 1.57285,1.59467 2.20249,2.19955l1.14482,1.09977l-3.66807,3.64924l-3.66807,3.64924l3.66807,3.64924l3.66807,3.64924l-1.1554,1.09977c-0.63547,0.60487 -1.62714,1.59467 -2.20373,2.19955c-0.57658,0.60487 -1.53378,1.72964 -2.12709,2.49948c-0.59332,0.76984 -1.49502,2.07457 -2.00377,2.89939c-0.50875,0.82483 -1.28363,2.26453 -1.72195,3.19934c-0.43832,0.9348 -1.06986,2.50948 -1.40343,3.49927c-0.33357,0.9898 -0.78622,2.65445 -1.0059,3.69923c-0.21968,1.04479 -0.49589,2.97938 -0.61381,4.29911c-0.11792,1.31973 -0.14368,2.46626 -0.05724,2.54785c0.08644,0.0816 3.3965,0.12659 7.35567,0.09998l7.19851,-0.04838l0.12859,-1.59967c0.07072,-0.87981 0.3249,-2.31952 0.56484,-3.19933c0.23994,-0.87982 0.7266,-2.22954 1.08148,-2.99938c0.35487,-0.76984 0.94936,-1.84962 1.32107,-2.3995c0.37171,-0.54989 1.08692,-1.48766 1.58935,-2.08395c0.50243,-0.59628 1.58837,-1.61961 2.4132,-2.27405c0.82483,-0.65444 2.3995,-1.62633 3.49927,-2.15975c1.09977,-0.53341 2.80942,-1.16526 3.79921,-1.40409c1.3533,-0.32655 2.41952,-0.43425 4.2991,-0.43425c1.87959,0 2.94581,0.1077 4.29911,0.43425c0.9898,0.23883 2.69944,0.87068 3.79921,1.40409c1.09977,0.53342 2.67445,1.50531 3.49927,2.15975c0.82483,0.65444 1.91077,1.67776 2.4132,2.27405c0.50243,0.59628 1.21764,1.53406 1.58936,2.08395c0.37171,0.54988 0.96619,1.62965 1.32107,2.3995c0.35487,0.76984 0.84155,2.11956 1.08148,2.99938c0.23994,0.87981 0.49411,2.31951 0.56483,3.19933l0.12859,1.59967l7.1985,0.04838c3.95918,0.0266 7.26604,-0.01839 7.34858,-0.09998c0.08255,-0.08159 0.0573,-1.22813 -0.05608,-2.54785c-0.11338,-1.31973 -0.3864,-3.25432 -0.60671,-4.29911c-0.22031,-1.04478 -0.67348,-2.70943 -1.00706,-3.69923c-0.33356,-0.98979 -0.9651,-2.56447 -1.40342,-3.49927c-0.43832,-0.93481 -1.2132,-2.37451 -1.72195,-3.19934c-0.50875,-0.82482 -1.40963,-2.12955 -2.00195,-2.89939c-0.59233,-0.76984 -1.55428,-1.8946 -2.13768,-2.49948c-0.5834,-0.60487 -1.57589,-1.59467 -2.20554,-2.19955l-1.14481,-1.09977l3.66807,-3.64924l3.66808,-3.64924l-3.66808,-3.64924l-3.66807,-3.64924l1.14481,-1.09977c0.62965,-0.60487 1.62077,-1.59467 2.20249,-2.19955c0.58173,-0.60487 1.34747,-1.45969 1.70166,-1.8996c0.35418,-0.4399 1.20979,-1.65465 1.90134,-2.69944c0.69156,-1.04478 1.66325,-2.75443 2.15933,-3.79921c0.49608,-1.04478 1.17427,-2.70944 1.5071,-3.69923c0.33282,-0.98979 0.78539,-2.65445 1.00569,-3.69923c0.22031,-1.04478 0.49333,-2.97938 0.60671,-4.29911c0.11339,-1.31973 0.13863,-2.46626 0.05608,-2.54786c-0.08253,-0.0816 -3.3894,-0.12659 -7.34858,-0.09998l-7.1985,0.04838l-0.12859,1.59967c-0.07072,0.87982 -0.3249,2.31952 -0.56483,3.19934c-0.23994,0.87982 -0.72713,2.22953 -1.08265,2.99937c-0.35551,0.76984 -1.04103,1.98459 -1.52336,2.69944c-0.48232,0.71485 -1.56063,1.97459 -2.39622,2.79942c-0.83561,0.82483 -1.76678,1.63466 -2.06928,1.79963l-0.55001,0.29994l-5.19059,-5.19892l-5.19059,-5.19892l-5.19059,5.19892l-5.19059,5.19892l-0.55,-0.29994c-0.30251,-0.16496 -1.23368,-0.9748 -2.06928,-1.79963c-0.8356,-0.82483 -1.91391,-2.08457 -2.39623,-2.79942c-0.48233,-0.71485 -1.16784,-1.9296 -1.52336,-2.69944c-0.35551,-0.76984 -0.8427,-2.11956 -1.08265,-2.99937c-0.23993,-0.87982 -0.49411,-2.31952 -0.56484,-3.19934l-0.12859,-1.59967l-7.2485,-0.04999z" fill="#000000" id="svg_2"/>
 </g>
</svg>